<svg xmlns="http://www.w3.org/2000/svg" version="1.1" xmlns:xlink="http://www.w3.org/1999/xlink" xmlns:svgjs="http://svgjs.dev/svgjs" width="1500" height="1500" viewBox="0 0 1500 1500"><rect width="1500" height="1500" fill="#ffffff"></rect><g transform="matrix(0.6666666666666666,0,0,0.6666666666666666,250.04927834269523,420.93333333333334)"><svg viewBox="0 0 375 247" data-background-color="#ffffff" preserveAspectRatio="xMidYMid meet" height="988" width="1500" xmlns="http://www.w3.org/2000/svg" xmlns:xlink="http://www.w3.org/1999/xlink"><g id="tight-bounds" transform="matrix(1,0,0,1,-0.01847937851070469,-0.09999999999999432)"><svg viewBox="0 0 375.0369587570214 247.2" height="247.2" width="375.0369587570214"><g><svg viewBox="0 0 395.52 260.7010901646757" height="247.2" width="375.0369587570214"><g><svg viewBox="0 0 395.52 260.7010901646757" height="260.7010901646757" width="395.52"><g id="textblocktransform"><svg viewBox="0 0 395.52 260.7010901646757" height="260.7010901646757" width="395.52" id="textblock"><g><svg viewBox="0 0 395.52 211.61260221870046" height="211.61260221870046" width="395.52"><g transform="matrix(1,0,0,1,0,0)"><svg width="395.52" viewBox="1.1482520738712507 -36.4 158.20174792612875 79.25" height="211.61260221870046" data-palette-color="#010c80"><svg></svg><svg></svg><g class="wordmark-text-0" data-fill-palette-color="primary" id="text-0"><path d="M6.15-36.4h8.5c3.967 0 7.21 0.74 9.73 2.22 2.513 1.487 4.38 3.587 5.6 6.3 1.213 2.72 1.82 5.947 1.82 9.68v0c0 6.267-1.35 10.867-4.05 13.8-2.7 2.933-6.833 4.4-12.4 4.4v0h-2.2c-1.633 0-3.15-0.167-4.55-0.5-1.4-0.333-2.633-0.943-3.7-1.83-1.067-0.88-1.9-2.12-2.5-3.72-0.6-1.6-0.9-3.667-0.9-6.2v0c0-2.367 0.327-4.417 0.98-6.15 0.647-1.733 1.42-3.117 2.32-4.15 0.9-1.033 1.717-1.667 2.45-1.9v0l-0.25-0.95h-0.85c-1.533 0-2.74-0.493-3.62-1.48-0.887-0.98-1.347-2.303-1.38-3.97v0c-0.033-1.667 0.41-3.01 1.33-4.03 0.913-1.013 2.137-1.52 3.67-1.52zM11.05-24.55v11.65c0 0.7 0.16 1.183 0.48 1.45 0.313 0.267 0.787 0.4 1.42 0.4v0h2.7c1.7 0 3.017-0.367 3.95-1.1 0.933-0.733 1.593-1.677 1.98-2.83 0.38-1.147 0.57-2.37 0.57-3.67v0c0-1.3-0.19-2.55-0.57-3.75-0.387-1.2-1.047-2.183-1.98-2.95-0.933-0.767-2.25-1.15-3.95-1.15v0h-2.7c-0.633 0-1.107 0.14-1.42 0.42-0.32 0.287-0.48 0.797-0.48 1.53zM39.2-36.4h8.5c3.967 0 7.21 0.74 9.73 2.22 2.513 1.487 4.38 3.587 5.6 6.3 1.213 2.72 1.82 5.947 1.82 9.68v0c0 6.267-1.35 10.867-4.05 13.8-2.7 2.933-6.833 4.4-12.4 4.4v0h-2.2c-1.633 0-3.15-0.167-4.55-0.5-1.4-0.333-2.633-0.943-3.7-1.83-1.067-0.88-1.9-2.12-2.5-3.72-0.6-1.6-0.9-3.667-0.9-6.2v0c0-2.367 0.327-4.417 0.98-6.15 0.647-1.733 1.42-3.117 2.32-4.15 0.9-1.033 1.717-1.667 2.45-1.9v0l-0.25-0.95h-0.85c-1.533 0-2.74-0.493-3.62-1.48-0.887-0.98-1.347-2.303-1.38-3.97v0c-0.033-1.667 0.41-3.01 1.33-4.03 0.913-1.013 2.137-1.52 3.67-1.52zM44.1-24.55v11.65c0 0.7 0.16 1.183 0.48 1.45 0.313 0.267 0.787 0.4 1.42 0.4v0h2.7c1.7 0 3.017-0.367 3.95-1.1 0.933-0.733 1.593-1.677 1.98-2.83 0.38-1.147 0.57-2.37 0.57-3.67v0c0-1.3-0.19-2.55-0.57-3.75-0.387-1.2-1.047-2.183-1.98-2.95-0.933-0.767-2.25-1.15-3.95-1.15v0h-2.7c-0.633 0-1.107 0.14-1.42 0.42-0.32 0.287-0.48 0.797-0.48 1.53zM82.9 0.15v0c-2-0.033-3.907-0.3-5.72-0.8-1.82-0.5-3.447-1.317-4.88-2.45-1.433-1.133-2.557-2.65-3.37-4.55-0.82-1.9-1.23-4.25-1.23-7.05v0-16.95c0-1.6 0.527-2.793 1.58-3.58 1.047-0.78 2.27-1.17 3.67-1.17v0c1.367 0 2.583 0.39 3.65 1.17 1.067 0.787 1.6 1.98 1.6 3.58v0 14.6c0 2.367 0.56 4.1 1.68 5.2 1.113 1.1 2.553 1.6 4.32 1.5v0c1.867-0.133 3.21-0.85 4.03-2.15 0.813-1.3 1.037-3.033 0.67-5.2v0c-0.233-1.467-0.49-2.7-0.77-3.7-0.287-1-0.57-1.893-0.85-2.68-0.287-0.78-0.53-1.563-0.73-2.35-0.2-0.78-0.35-1.703-0.45-2.77v0c-0.2-2.233 0.26-3.993 1.38-5.28 1.113-1.28 2.587-1.92 4.42-1.92v0c1.833 0 3.267 0.617 4.3 1.85 1.033 1.233 1.55 3.1 1.55 5.6v0 14.25c0 2.8-0.39 5.157-1.17 7.07-0.787 1.92-1.87 3.453-3.25 4.6-1.387 1.153-2.97 1.97-4.75 2.45-1.787 0.487-3.68 0.73-5.68 0.73z" fill="#000000" fill-rule="nonzero" stroke="none" stroke-width="1" stroke-linecap="butt" stroke-linejoin="miter" stroke-miterlimit="10" stroke-dasharray="" stroke-dashoffset="0" font-family="none" font-weight="none" font-size="none" text-anchor="none" style="mix-blend-mode: normal" data-fill-palette-color="primary" opacity="1"></path><path d="M6.8 42.3v0c-1.533 0-2.783-0.467-3.75-1.4-0.967-0.933-1.45-2.117-1.45-3.55v0-26.45c0-1.467 0.477-2.7 1.43-3.7 0.947-1 2.203-1.5 3.77-1.5v0c1.667 0 2.977 0.493 3.93 1.48 0.947 0.98 1.42 2.187 1.42 3.62v0 26.55c0 1.433-0.507 2.617-1.52 3.55-1.02 0.933-2.297 1.4-3.83 1.4zM19.95 42.2v0c-1.467 0-2.64-0.443-3.52-1.33-0.887-0.88-1.33-1.97-1.33-3.27v0-16.55c0-1.4 0.417-2.583 1.25-3.55 0.833-0.967 2.033-1.45 3.6-1.45v0c1.533 0 2.7 0.483 3.5 1.45 0.8 0.967 1.2 2.183 1.2 3.65v0 2.5h0.9c0-1.9 0.343-3.4 1.03-4.5 0.68-1.1 1.553-1.893 2.62-2.38 1.067-0.48 2.133-0.72 3.2-0.72v0c2.567 0 4.45 0.923 5.65 2.77 1.2 1.853 1.8 4.48 1.8 7.88v0 10.9c0 1.3-0.433 2.39-1.3 3.27-0.867 0.887-2.033 1.33-3.5 1.33v0c-1.5 0-2.69-0.443-3.57-1.33-0.887-0.88-1.33-1.97-1.33-3.27v0-8.85c0-1.2-0.223-2.133-0.67-2.8-0.453-0.667-1.113-1-1.98-1v0c-1 0-1.723 0.367-2.17 1.1-0.453 0.733-0.68 1.667-0.68 2.8v0 8.75c0 1.3-0.417 2.39-1.25 3.27-0.833 0.887-1.983 1.33-3.45 1.33zM55.05 42.85v0c-2.3 0-4.423-0.227-6.37-0.68-1.953-0.447-3.513-1.163-4.68-2.15-1.167-0.98-1.75-2.287-1.75-3.92v0c0-1.433 0.433-2.617 1.3-3.55 0.867-0.933 2.017-1.4 3.45-1.4v0c0.9 0 1.81 0.14 2.73 0.42 0.913 0.287 1.887 0.563 2.92 0.83 1.033 0.267 2.15 0.4 3.35 0.4v0c1.067 0 1.783-0.06 2.15-0.18 0.367-0.113 0.55-0.337 0.55-0.67v0c0-0.4-0.223-0.667-0.67-0.8-0.453-0.133-1.213-0.3-2.28-0.5v0l-3.6-0.7c-1.5-0.3-2.957-0.693-4.37-1.18-1.42-0.48-2.59-1.203-3.51-2.17-0.913-0.967-1.37-2.283-1.37-3.95v0c0-2.267 1.01-4.033 3.03-5.3 2.013-1.267 4.937-1.9 8.77-1.9v0c2.2 0 4.177 0.217 5.93 0.65 1.747 0.433 3.137 1.073 4.17 1.92 1.033 0.853 1.55 1.913 1.55 3.18v0c0.033 1.367-0.333 2.467-1.1 3.3-0.767 0.833-1.733 1.25-2.9 1.25v0c-0.833 0-1.673-0.11-2.52-0.33-0.853-0.213-1.77-0.447-2.75-0.7-0.987-0.247-2.113-0.387-3.38-0.42v0c-0.9-0.067-1.633-0.017-2.2 0.15-0.567 0.167-0.85 0.433-0.85 0.8v0c0 0.4 0.333 0.673 1 0.82 0.667 0.153 1.667 0.347 3 0.58v0l3.55 0.65c2.167 0.367 3.893 0.823 5.18 1.37 1.28 0.553 2.203 1.313 2.77 2.28 0.567 0.967 0.85 2.3 0.85 4v0c0 1.767-0.51 3.24-1.53 4.42-1.013 1.187-2.42 2.063-4.22 2.63-1.8 0.567-3.867 0.85-6.2 0.85zM69.25 10.25v0c0-1.433 0.44-2.593 1.32-3.48 0.887-0.88 2.113-1.32 3.68-1.32v0c1.667 0 2.907 0.433 3.72 1.3 0.82 0.867 1.23 2.017 1.23 3.45v0c0 1.4-0.41 2.523-1.23 3.37-0.813 0.853-2.053 1.28-3.72 1.28v0c-1.633 0-2.877-0.427-3.73-1.28-0.847-0.847-1.27-1.953-1.27-3.32zM74.25 42.2v0c-1.567 0-2.733-0.433-3.5-1.3-0.767-0.867-1.15-1.95-1.15-3.25v0-17.1c0-1.433 0.383-2.567 1.15-3.4 0.767-0.833 1.933-1.25 3.5-1.25v0c1.567 0 2.74 0.417 3.52 1.25 0.787 0.833 1.18 1.933 1.18 3.3v0 17.2c0 1.3-0.41 2.383-1.23 3.25-0.813 0.867-1.97 1.3-3.47 1.3zM90.6 42.2v0c-6.067 0-9.1-4.467-9.1-13.4v0c0-3.867 0.75-6.96 2.25-9.28 1.5-2.313 3.75-3.47 6.75-3.47v0c1.633 0 2.957 0.333 3.97 1 1.02 0.667 1.823 1.573 2.41 2.72 0.58 1.153 1.003 2.48 1.27 3.98v0l0.15-0.05v-15.15c0-1.367 0.407-2.527 1.22-3.48 0.82-0.947 2.013-1.42 3.58-1.42v0c1.533 0 2.673 0.473 3.42 1.42 0.753 0.953 1.13 2.147 1.13 3.58v0 22.5c0 1.133 0.09 2.173 0.27 3.12 0.187 0.953 0.33 1.897 0.43 2.83v0c0.1 1.267-0.16 2.357-0.78 3.27-0.613 0.92-1.703 1.513-3.27 1.78v0c-2.033 0.333-3.543-0.017-4.53-1.05-0.98-1.033-1.47-2.567-1.47-4.6v0-1.85h-0.95c0 2.433-0.61 4.3-1.83 5.6-1.213 1.3-2.853 1.95-4.92 1.95zM89.85 28.35v0c0 1.033 0.317 1.8 0.95 2.3 0.633 0.5 1.767 0.75 3.4 0.75v0c1.667 0 2.817-0.25 3.45-0.75 0.633-0.5 0.95-1.267 0.95-2.3v0c0-1.067-0.31-1.843-0.93-2.33-0.613-0.48-1.753-0.72-3.42-0.72v0c-1.667 0-2.817 0.24-3.45 0.72-0.633 0.487-0.95 1.263-0.95 2.33zM110.55 29.2v0c0-2.633 0.523-4.95 1.57-6.95 1.053-2 2.553-3.567 4.5-4.7 1.953-1.133 4.28-1.7 6.98-1.7v0c2.1 0 3.99 0.383 5.67 1.15 1.687 0.767 3.013 1.79 3.98 3.07 0.967 1.287 1.45 2.697 1.45 4.23v0c0 1.6-0.467 2.733-1.4 3.4-0.933 0.667-2.317 1-4.15 1v0h-10.5c0 0.867 0.34 1.583 1.02 2.15 0.687 0.567 1.847 0.85 3.48 0.85v0c0.833 0 1.607-0.083 2.32-0.25 0.72-0.167 1.453-0.327 2.2-0.48 0.753-0.147 1.597-0.22 2.53-0.22v0c1.333 0 2.433 0.473 3.3 1.42 0.867 0.953 1.3 2.263 1.3 3.93v0c0 1.967-1.01 3.5-3.03 4.6-2.013 1.1-4.653 1.65-7.92 1.65v0c-2.3 0-4.46-0.45-6.48-1.35-2.013-0.9-3.653-2.327-4.92-4.28-1.267-1.947-1.9-4.453-1.9-7.52zM118.8 27.05h7.95c0.5 0 0.667-0.233 0.5-0.7v0c-0.133-0.467-0.533-0.95-1.2-1.45-0.667-0.5-1.633-0.75-2.9-0.75v0c-1.467 0-2.557 0.317-3.27 0.95-0.72 0.633-1.08 1.283-1.08 1.95zM142 42.2v0c-1.567 0-2.783-0.45-3.65-1.35-0.867-0.9-1.3-2.033-1.3-3.4v0-16.4c0-1.433 0.433-2.627 1.3-3.58 0.867-0.947 2.083-1.42 3.65-1.42v0c1.567 0 2.767 0.473 3.6 1.42 0.833 0.953 1.25 2.113 1.25 3.48v0 1.05h0.95c0.133-1.767 0.8-3.217 2-4.35 1.2-1.133 2.617-1.7 4.25-1.7v0c1.633 0 2.923 0.5 3.87 1.5 0.953 1 1.43 2.333 1.43 4v0c0 1.567-0.45 2.867-1.35 3.9-0.9 1.033-2.05 1.55-3.45 1.55v0c-1.167 0-2.14-0.277-2.92-0.83-0.787-0.547-1.363-1.187-1.73-1.92v0c-1.067-0.133-1.843-0.027-2.33 0.32-0.48 0.353-0.72 1.047-0.72 2.08v0 10.9c0 1.367-0.417 2.5-1.25 3.4-0.833 0.9-2.033 1.35-3.6 1.35z" fill="#000000" fill-rule="nonzero" stroke="none" stroke-width="1" stroke-linecap="butt" stroke-linejoin="miter" stroke-miterlimit="10" stroke-dasharray="" stroke-dashoffset="0" font-family="none" font-weight="none" font-size="none" text-anchor="none" style="mix-blend-mode: normal" data-fill-palette-color="secondary" opacity="1"></path></g></svg></g></svg></g><g transform="matrix(1,0,0,1,0,234.81522001384468)"><svg viewBox="0 0 266.77824 25.88587015083101" height="25.88587015083101" width="266.77824"><g transform="matrix(1,0,0,1,0,0)"><svg width="266.77824" viewBox="3 -39.65 520.39 50.5" height="25.88587015083101" data-palette-color="#4b91f1"><path d="M9.35 0L3 0 3-34.55 19.7-34.55 19-29.8 9.35-29.8 9.35-19.25 17.75-19.25 17.75-14.5 9.35-14.5 9.35 0ZM34.65-27.1Q35.8-27.1 36.7-26.75L36.7-26.75 35.7-20.85Q34.7-21.1 33.85-21.1L33.85-21.1Q31.95-21.1 30.85-19.45 29.75-17.8 29.15-14.55L29.15-14.55 29.15 0 23 0 23-26.45 28.35-26.45 28.8-21.85Q30.65-27.1 34.65-27.1L34.65-27.1ZM48.95-27.15Q53.95-27.15 56.72-23.65 59.5-20.15 59.5-13.25L59.5-13.25Q59.5-6.65 56.7-2.95 53.9 0.75 48.95 0.75L48.95 0.75Q44 0.75 41.2-2.88 38.4-6.5 38.4-13.25L38.4-13.25Q38.4-19.95 41.2-23.55 44-27.15 48.95-27.15L48.95-27.15ZM48.95-22.5Q46.8-22.5 45.8-20.38 44.8-18.25 44.8-13.25L44.8-13.25Q44.8-8.2 45.8-6.08 46.8-3.95 48.95-3.95L48.95-3.95Q51.1-3.95 52.1-6.08 53.1-8.2 53.1-13.25L53.1-13.25Q53.1-18.3 52.1-20.4 51.1-22.5 48.95-22.5L48.95-22.5ZM87.69-27.15Q90.34-27.15 91.94-25.1 93.54-23.05 93.54-19.6L93.54-19.6 93.54 0 87.49 0 87.49-18.95Q87.49-20.85 86.99-21.68 86.49-22.5 85.54-22.5L85.54-22.5Q83.59-22.5 81.79-18.8L81.79-18.8 81.79 0 75.79 0 75.79-18.95Q75.79-22.5 73.89-22.5L73.89-22.5Q71.84-22.5 70.09-18.8L70.09-18.8 70.09 0 64.04 0 64.04-26.45 69.39-26.45 69.79-23.05Q72.39-27.15 76.04-27.15L76.04-27.15Q77.89-27.15 79.24-26 80.59-24.85 81.29-22.75L81.29-22.75Q83.94-27.15 87.69-27.15L87.69-27.15ZM118.39-27.15Q120.54-27.15 122.29-26.43 124.04-25.7 125.64-24.15L125.64-24.15 122.99-20.65Q121.89-21.55 120.91-21.98 119.94-22.4 118.79-22.4L118.79-22.4Q116.54-22.4 115.39-20.28 114.24-18.15 114.24-13.1L114.24-13.1Q114.24-8.2 115.41-6.2 116.59-4.2 118.79-4.2L118.79-4.2Q119.89-4.2 120.79-4.6 121.69-5 122.89-5.85L122.89-5.85 125.64-2.3Q122.44 0.75 118.49 0.75L118.49 0.75Q113.39 0.75 110.56-2.73 107.74-6.2 107.74-13L107.74-13Q107.74-17.4 109.04-20.6 110.34-23.8 112.76-25.48 115.19-27.15 118.39-27.15L118.39-27.15ZM145.59-6.4Q145.59-5.1 145.94-4.48 146.29-3.85 147.09-3.45L147.09-3.45 145.84 0.65Q143.79 0.4 142.56-0.45 141.34-1.3 140.74-3.05L140.74-3.05Q138.44 0.75 134.29 0.75L134.29 0.75Q130.99 0.75 129.04-1.48 127.09-3.7 127.09-7.4L127.09-7.4Q127.09-11.7 129.76-13.95 132.44-16.2 137.54-16.2L137.54-16.2 139.59-16.2 139.59-18.05Q139.59-20.55 138.71-21.58 137.84-22.6 135.89-22.6L135.89-22.6Q133.54-22.6 130.04-21.3L130.04-21.3 128.64-25.3Q130.64-26.2 132.79-26.68 134.94-27.15 136.89-27.15L136.89-27.15Q145.59-27.15 145.59-18.35L145.59-18.35 145.59-6.4ZM135.94-3.7Q138.34-3.7 139.59-7L139.59-7 139.59-12.55 138.14-12.55Q135.59-12.55 134.41-11.4 133.24-10.25 133.24-7.85L133.24-7.85Q133.24-5.8 133.94-4.75 134.64-3.7 135.94-3.7L135.94-3.7ZM175.03-27.15Q177.68-27.15 179.28-25.1 180.88-23.05 180.88-19.6L180.88-19.6 180.88 0 174.83 0 174.83-18.95Q174.83-20.85 174.33-21.68 173.83-22.5 172.88-22.5L172.88-22.5Q170.93-22.5 169.13-18.8L169.13-18.8 169.13 0 163.13 0 163.13-18.95Q163.13-22.5 161.23-22.5L161.23-22.5Q159.18-22.5 157.43-18.8L157.43-18.8 157.43 0 151.38 0 151.38-26.45 156.73-26.45 157.13-23.05Q159.73-27.15 163.38-27.15L163.38-27.15Q165.23-27.15 166.58-26 167.93-24.85 168.63-22.75L168.63-22.75Q171.28-27.15 175.03-27.15L175.03-27.15ZM198.58-27.15Q202.48-27.15 204.48-23.58 206.48-20 206.48-13.3L206.48-13.3Q206.48-6.8 204.21-3.03 201.93 0.75 197.88 0.75L197.88 0.75Q194.68 0.75 192.53-2.1L192.53-2.1 192.53 10.15 186.38 10.85 186.38-26.45 191.83-26.45 192.08-23.25Q193.38-25.25 194.98-26.2 196.58-27.15 198.58-27.15L198.58-27.15ZM196.23-3.95Q198.13-3.95 199.13-6.13 200.13-8.3 200.13-13.25L200.13-13.25Q200.13-18.45 199.28-20.5 198.43-22.55 196.63-22.55L196.63-22.55Q194.33-22.55 192.53-19.25L192.53-19.25 192.53-6.45Q194.13-3.95 196.23-3.95L196.23-3.95ZM229.23-26.45L229.23 0 223.88 0 223.58-3.35Q222.33-1.3 220.78-0.28 219.23 0.75 217.18 0.75L217.18 0.75Q214.28 0.75 212.6-1.3 210.93-3.35 210.93-6.65L210.93-6.65 210.93-26.45 217.08-26.45 217.08-7Q217.08-3.9 219.18-3.9L219.18-3.9Q220.38-3.9 221.33-4.83 222.28-5.75 223.08-7.45L223.08-7.45 223.08-26.45 229.23-26.45ZM242.28-27.15Q246.98-27.15 250.23-24.05L250.23-24.05 247.88-20.7Q246.48-21.7 245.23-22.2 243.98-22.7 242.68-22.7L242.68-22.7Q241.23-22.7 240.4-21.93 239.58-21.15 239.58-19.8L239.58-19.8Q239.58-18.45 240.5-17.63 241.43-16.8 244.23-15.7L244.23-15.7Q247.68-14.35 249.33-12.5 250.98-10.65 250.98-7.55L250.98-7.55Q250.98-3.7 248.28-1.48 245.58 0.75 241.43 0.75L241.43 0.75Q238.73 0.75 236.45-0.23 234.18-1.2 232.48-2.95L232.48-2.95 235.48-6.25Q238.28-3.8 241.18-3.8L241.18-3.8Q242.83-3.8 243.78-4.67 244.73-5.55 244.73-7.1L244.73-7.1Q244.73-8.25 244.33-8.97 243.93-9.7 242.93-10.33 241.93-10.95 239.93-11.7L239.93-11.7Q236.48-13.05 235-14.85 233.53-16.65 233.53-19.45L233.53-19.45Q233.53-22.8 235.9-24.98 238.28-27.15 242.28-27.15L242.28-27.15ZM275.82-5L277.97-1.2Q275.52 0.75 272.22 0.75L272.22 0.75Q268.77 0.75 266.97-1.23 265.17-3.2 265.17-6.6L265.17-6.6 265.17-22 262.07-22 262.07-26.45 265.17-26.45 265.17-32.3 271.32-33.05 271.32-26.45 276.32-26.45 275.72-22 271.32-22 271.32-6.6Q271.32-4.2 273.37-4.2L273.37-4.2Q274.02-4.2 274.52-4.38 275.02-4.55 275.82-5L275.82-5ZM289.92-27.15Q294.92-27.15 297.69-23.65 300.47-20.15 300.47-13.25L300.47-13.25Q300.47-6.65 297.67-2.95 294.87 0.75 289.92 0.75L289.92 0.75Q284.97 0.75 282.17-2.88 279.37-6.5 279.37-13.25L279.37-13.25Q279.37-19.95 282.17-23.55 284.97-27.15 289.92-27.15L289.92-27.15ZM289.92-22.5Q287.77-22.5 286.77-20.38 285.77-18.25 285.77-13.25L285.77-13.25Q285.77-8.2 286.77-6.08 287.77-3.95 289.92-3.95L289.92-3.95Q292.07-3.95 293.07-6.08 294.07-8.2 294.07-13.25L294.07-13.25Q294.07-18.3 293.07-20.4 292.07-22.5 289.92-22.5L289.92-22.5ZM324.36-27.15Q326.51-27.15 328.26-26.43 330.01-25.7 331.61-24.15L331.61-24.15 328.96-20.65Q327.86-21.55 326.89-21.98 325.91-22.4 324.76-22.4L324.76-22.4Q322.51-22.4 321.36-20.28 320.21-18.15 320.21-13.1L320.21-13.1Q320.21-8.2 321.39-6.2 322.56-4.2 324.76-4.2L324.76-4.2Q325.86-4.2 326.76-4.6 327.66-5 328.86-5.85L328.86-5.85 331.61-2.3Q328.41 0.75 324.46 0.75L324.46 0.75Q319.36 0.75 316.54-2.73 313.71-6.2 313.71-13L313.71-13Q313.71-17.4 315.01-20.6 316.31-23.8 318.74-25.48 321.16-27.15 324.36-27.15L324.36-27.15ZM344.06-27.15Q349.06-27.15 351.84-23.65 354.61-20.15 354.61-13.25L354.61-13.25Q354.61-6.65 351.81-2.95 349.01 0.75 344.06 0.75L344.06 0.75Q339.11 0.75 336.31-2.88 333.51-6.5 333.51-13.25L333.51-13.25Q333.51-19.95 336.31-23.55 339.11-27.15 344.06-27.15L344.06-27.15ZM344.06-22.5Q341.91-22.5 340.91-20.38 339.91-18.25 339.91-13.25L339.91-13.25Q339.91-8.2 340.91-6.08 341.91-3.95 344.06-3.95L344.06-3.95Q346.21-3.95 347.21-6.08 348.21-8.2 348.21-13.25L348.21-13.25Q348.21-18.3 347.21-20.4 346.21-22.5 344.06-22.5L344.06-22.5ZM382.81-27.15Q385.46-27.15 387.06-25.1 388.66-23.05 388.66-19.6L388.66-19.6 388.66 0 382.61 0 382.61-18.95Q382.61-20.85 382.11-21.68 381.61-22.5 380.66-22.5L380.66-22.5Q378.71-22.5 376.91-18.8L376.91-18.8 376.91 0 370.91 0 370.91-18.95Q370.91-22.5 369.01-22.5L369.01-22.5Q366.96-22.5 365.21-18.8L365.21-18.8 365.21 0 359.16 0 359.16-26.45 364.51-26.45 364.91-23.05Q367.51-27.15 371.16-27.15L371.16-27.15Q373.01-27.15 374.36-26 375.71-24.85 376.41-22.75L376.41-22.75Q379.06-27.15 382.81-27.15L382.81-27.15ZM417.81-27.15Q420.46-27.15 422.06-25.1 423.66-23.05 423.66-19.6L423.66-19.6 423.66 0 417.61 0 417.61-18.95Q417.61-20.85 417.11-21.68 416.61-22.5 415.66-22.5L415.66-22.5Q413.71-22.5 411.91-18.8L411.91-18.8 411.91 0 405.91 0 405.91-18.95Q405.91-22.5 404.01-22.5L404.01-22.5Q401.96-22.5 400.21-18.8L400.21-18.8 400.21 0 394.16 0 394.16-26.45 399.51-26.45 399.91-23.05Q402.51-27.15 406.16-27.15L406.16-27.15Q408.01-27.15 409.36-26 410.71-24.85 411.41-22.75L411.41-22.75Q414.06-27.15 417.81-27.15L417.81-27.15ZM447.3-26.45L447.3 0 441.95 0 441.65-3.35Q440.4-1.3 438.85-0.28 437.3 0.75 435.25 0.75L435.25 0.75Q432.35 0.75 430.68-1.3 429-3.35 429-6.65L429-6.65 429-26.45 435.15-26.45 435.15-7Q435.15-3.9 437.25-3.9L437.25-3.9Q438.45-3.9 439.4-4.83 440.35-5.75 441.15-7.45L441.15-7.45 441.15-26.45 447.3-26.45ZM465.35-27.15Q468.2-27.15 469.85-25.1 471.5-23.05 471.5-19.6L471.5-19.6 471.5 0 465.35 0 465.35-18.9Q465.35-20.8 464.83-21.63 464.3-22.45 463.3-22.45L463.3-22.45Q461.2-22.45 459.15-18.5L459.15-18.5 459.15 0 453 0 453-26.45 458.35-26.45 458.8-23Q460.15-25.1 461.68-26.13 463.2-27.15 465.35-27.15L465.35-27.15ZM477.05-26.45L483.2-26.45 483.2 0 477.05 0 477.05-26.45ZM480.1-39.65Q481.75-39.65 482.77-38.6 483.8-37.55 483.8-35.9L483.8-35.9Q483.8-34.3 482.77-33.25 481.75-32.2 480.1-32.2L480.1-32.2Q478.45-32.2 477.42-33.25 476.4-34.3 476.4-35.9L476.4-35.9Q476.4-37.55 477.42-38.6 478.45-39.65 480.1-39.65L480.1-39.65ZM500.05-5L502.2-1.2Q499.75 0.75 496.45 0.75L496.45 0.75Q493 0.75 491.2-1.23 489.4-3.2 489.4-6.6L489.4-6.6 489.4-22 486.3-22 486.3-26.45 489.4-26.45 489.4-32.3 495.55-33.05 495.55-26.45 500.55-26.45 499.95-22 495.55-22 495.55-6.6Q495.55-4.2 497.6-4.2L497.6-4.2Q498.25-4.2 498.75-4.38 499.25-4.55 500.05-5L500.05-5ZM523.39-26.45L516.39 0.1Q515.09 4.9 512.19 7.65 509.29 10.4 504.44 10.85L504.44 10.85 503.74 6.5Q506.89 5.85 508.47 4.42 510.04 3 510.94 0L510.94 0 508.64 0 501.94-26.45 508.19-26.45 512.59-4.1 517.29-26.45 523.39-26.45Z" opacity="1" transform="matrix(1,0,0,1,0,0)" fill="#000000" class="slogan-text-1" data-fill-palette-color="secondary" id="text-1"></path></svg></g></svg></g></svg></g></svg></g></svg></g><defs></defs></svg><rect width="375.0369587570214" height="247.2" fill="none" stroke="none" visibility="hidden"></rect></g></svg></g></svg>